PathFileType	4	(X/Y/Z)	C:/Users/beibeiliu/ov580/test_trc/capture2\sequence.3_training_dense_right.trc
DataRate	CameraRate	NumFrames	NumMarkers	Units	OrigDataRate	OrigDataStartFrame	OrigNumFrames
120	120	10	19	mm	120	263	350
Frame#	Time	ThumbCMC			ThumbMCP			ThumbIP			ThumbTip			IndexMCP			IndexPIP			IndexTip			MiddleMCP			MiddlePIP			MiddleTip			RingMCP			RingPIP			RingTip			PinkyMCP			PinkyPIP			PinkyTip			BackHand1			BackHand2			BackHand3	
		X0	Y0	Z0	X1	Y1	Z1	X2	Y2	Z2	X3	Y3	Z3	X4	Y4	Z4	X5	Y5	Z5	X6	Y6	Z6	X7	Y7	Z7	X8	Y8	Z8	X9	Y9	Z9	X10	Y10	Z10	X11	Y11	Z11	X12	Y12	Z12	X13	Y13	Z13	X14	Y14	Z14	X15	Y15	Z15	X16	Y16	Z16	X17	Y17	Z17	X18	Y18	Z18	
262	2.18333	197.627	21.6525	-16.9687	197.626	43.3885	-39.1726	199.434	50.5838	-68.0625	178.77	41.6957	-88.8251	197.747	12.6211	-85.5209	185.791	37.0222	-83.9524	181.757	29.2611	-50.9249	174.213	7.24775	-88.1364	166.351	37.7936	-81.2464	167.799	29.6124	-47.1971	157.112	7.18138	-83.4767	154.245	35.7754	-71.0967	157.786	22.5714	-39.0436	140.206	6.3243	-74.756	141.737	31.8471	-61.5499	150.256	18.2981	-34.7699	153.402	-25.9414	-35.1399	153.351	-24.1936	-5.56244	185.989	-17.6854	-21.4418	
263	2.19167	197.609	24.3721	-19.8023	196.846	44.583	-43.5744	194.504	49.5327	-74.0405	176.526	41.0468	-91.5514	199.673	14.357	-86.3391	187.834	41.6069	-84.0083	182.145	33.7734	-53.3353	176.422	5.83403	-87.813	166.476	35.259	-85.3015	170.627	30.5369	-47.4823	159.241	6.76498	-85.3685	149.481	34.1978	-72.7461	156.093	23.0007	-41.5417	140.893	2.28438	-75.7174	141.315	28.6066	-61.2855	152.868	17.4219	-34.5434	160.778	-26.5403	-36.4724	158.731	-23.9682	-5.33706	189.222	-12.5368	-19.2442	
264	2.2	198.838	29.4248	-16.3156	194.408	46.9781	-43.0361	191.811	51.66	-75.6511	173.582	41.2414	-89.0643	198.686	17.056	-87.7664	186.624	41.8463	-85.6972	179.934	31.68	-54.836	177.412	7.35656	-89.9396	164.018	35.637	-85.2435	168.696	27.7159	-47.3056	158.006	4.11022	-85.622	152.706	33.0395	-73.3725	158.565	18.5497	-40.9755	145.149	0.398197	-75.9924	141.99	27.2586	-62.6474	156.086	13.2764	-35.7459	162.14	-27.6459	-36.6084	163.489	-22.6226	-8.65318	192.445	-10.7199	-20.4504	
265	2.20833	196.782	27.3016	-21.5533	193.831	47.9644	-47.5751	190.267	53.4744	-77.5185	170.862	39.9887	-94.9092	198.013	16.4789	-88.0035	182.708	41.8373	-86.488	181.475	31.6475	-52.8875	178.884	9.71961	-92.8469	165.129	34.7339	-86.0968	166.424	27.044	-49.8556	161.035	5.98455	-86.3713	149.185	31.8279	-71.6786	158.687	21.8724	-44.3132	143.299	0.283787	-79.2381	140.482	24.621	-65.9117	152.126	11.5086	-35.9688	166.667	-27.5045	-42.3038	166.35	-23.937	-5.60176	196.508	-10.3756	-22.1498	
266	2.21667	199.556	31.0505	-23.0604	191.196	48.5012	-46.9789	186.8	51.5272	-74.3343	169.12	40.4875	-96.3078	198.982	14.6681	-86.5243	182.402	42.946	-84.4395	180.895	31.6223	-54.3783	178.541	8.95847	-92.7276	165.008	35.8333	-85.8316	170.557	31.2146	-50.7382	164.143	5.37682	-87.0291	148.064	27.8868	-75.4072	160.837	18.836	-43.6807	148.698	-4.31476	-76.6599	137.991	22.7745	-64.1727	156.719	14.4617	-36.5943	170.416	-28.7924	-39.9925	167.905	-23.5863	-10.9818	195.359	-9.14273	-22.0654	
267	2.225	195.644	30.1986	-20.4861	189.982	48.8535	-49.5255	184.368	53.2496	-76.6679	167.487	39.9495	-93.9028	202.395	19.7145	-87.2953	180.542	39.8938	-88.4907	182.673	30.0397	-53.3357	182.128	9.62119	-92.7642	163.946	33.76	-86.8432	168.322	30.9458	-51.9068	162.94	4.0777	-88.4026	153.28	29.6406	-74.8675	165.096	18.4612	-43.9036	148.919	-4.29059	-77.1896	138.802	21.2987	-66.1468	156.342	12.052	-36.8897	172.902	-28.7052	-42.6802	171.373	-25.0442	-10.1966	199.462	-8.0226	-26.1289	
268	2.23333	197.159	34.0342	-21.0585	187.765	53.2636	-52.8347	180.069	54.2928	-76.1608	163.918	37.4133	-98.5123	197.245	19.5922	-92.4894	180.9	43.7159	-87.7721	181.744	34.8161	-56.4895	180.037	8.28479	-93.7916	165.23	33.7163	-90.5464	166.565	27.3748	-51.301	163.973	4.48462	-89.9284	152.543	28.8271	-76.012	163.936	19.9594	-46.8045	147.393	-6.17012	-79.0471	140.734	21.1917	-64.8896	154.066	11.2629	-35.7109	176.165	-26.6273	-43.3489	170.594	-23.2436	-8.92667	201.248	-4.5964	-22.0663	
269	2.24167	193.028	34.2866	-26.2906	182.764	52.1862	-53.8321	173.564	54.7187	-80.4506	158.71	36.662	-97.2886	200.001	23.506	-91.3998	175.613	42.6771	-89.8487	175.623	34.8298	-59.7847	183.565	9.49961	-93.3757	159.058	32.7479	-89.702	164.71	27.2269	-52.6329	163.624	0.29918	-88.9365	149.361	26.2345	-80.2381	160.466	21.1807	-49.0406	146.41	-7.29749	-80.4584	138.81	18.0672	-66.3695	153.134	9.97769	-38.2222	179.88	-26.2725	-43.3828	177.389	-22.6202	-12.5071	203.703	-1.96563	-25.4855	
270	2.25	193.573	41.3305	-27.9771	177.405	57.8179	-54.4879	167.11	54.1058	-78.7373	154.007	33.55	-93.8739	196.972	23.3118	-94.329	172.095	41.9347	-94.5285	169.724	38.7525	-63.6015	183.111	12.1435	-96.2144	158.074	31.586	-93.8796	165.577	31.5864	-54.859	163.767	2.52701	-91.2893	148.576	26.3609	-78.3138	161.338	18.9791	-48.0352	149.952	-9.59264	-81.0791	136.165	14.15	-68.3405	154.633	11.4977	-42.371	182.064	-22.4046	-41.3438	182.312	-19.0444	-9.93604	204.436	0.203262	-24.5043	
271	2.25833	188.97	43.5772	-27.5488	172.877	58.6945	-56.8784	162.201	54.6649	-82.9068	152.144	27.3582	-93.9116	195.707	26.6073	-94.9501	170.465	43.0917	-101.663	161.792	42.6476	-66.9308	180.603	13.1515	-96.673	153.413	30.0078	-95.4418	157.114	29.2213	-58.6572	164.899	0.831543	-91.4333	141.756	20.2156	-80.0602	155.7	18.8418	-50.2597	152.688	-9.57675	-81.3007	135.942	12.2745	-66.2864	152.694	11.1182	-40.9997	188.224	-21.2996	-46.7136	180.407	-19.6532	-10.7637	206.068	5.56951	-27.5007	
